<svg xmlns="http://www.w3.org/2000/svg" viewBox="0 0 900 256" width="900" height="256" role="img" aria-label="Career Experience Timeline">
<title>Experience</title>
<defs><linearGradient id="bgG" x1="0" y1="0" x2="1" y2="1"><stop offset="0" stop-color="#f2f8fc"/><stop offset="1" stop-color="#d8ebf5"/></linearGradient><linearGradient id="accentG" x1="0" y1="0" x2="1" y2="0"><stop offset="0" stop-color="#0b6f96"/><stop offset="1" stop-color="#9a5a00"/></linearGradient><pattern id="gm" width="12" height="12" patternUnits="userSpaceOnUse"><path d="M12 0H0V12" fill="none" stroke="#186488" stroke-opacity="0.1" stroke-width=".7"/></pattern><pattern id="gM" width="60" height="60" patternUnits="userSpaceOnUse"><rect width="60" height="60" fill="url(#gm)"/><path d="M60 0H0V60" fill="none" stroke="#186488" stroke-opacity="0.2" stroke-width="1"/></pattern><clipPath id="plate"><rect x="0" y="0" width="900" height="256" rx="5"/></clipPath><filter id="grain" x="-20%" y="-20%" width="140%" height="140%"><feTurbulence type="fractalNoise" baseFrequency="0.85" numOctaves="2" seed="7" stitchTiles="stitch" result="n"/><feColorMatrix in="n" type="matrix" values="0 0 0 0 1  0 0 0 0 1  0 0 0 0 1  0 0 0 0.7 0"/></filter></defs>
<style>
.ix{font-family:ui-monospace,SFMono-Regular,'SF Mono',Menlo,Consolas,monospace;font-size:11px;letter-spacing:1px}
.period{font-family:ui-monospace,SFMono-Regular,'SF Mono',Menlo,Consolas,monospace;font-size:11px;font-weight:700;letter-spacing:.8px}
.role{font-family:-apple-system,BlinkMacSystemFont,'Segoe UI',Roboto,Helvetica,Arial,sans-serif;font-size:14px;font-weight:700}
.org{font-family:ui-monospace,SFMono-Regular,'SF Mono',Menlo,Consolas,monospace;font-size:11px}
.focus{font-family:ui-monospace,SFMono-Regular,'SF Mono',Menlo,Consolas,monospace;font-size:11px;letter-spacing:.3px}
.row{animation:up .5s cubic-bezier(.2,.7,.3,1) both}
@keyframes up{from{transform:translateX(-10px)}to{transform:translateX(0)}}
</style>
<rect x="0" y="0" width="900" height="256" rx="5" fill="url(#bgG)"/><g clip-path="url(#plate)"><rect x="0" y="0" width="900" height="256" fill="url(#gM)"/><rect x="0" y="0" width="900" height="256" filter="url(#grain)" opacity="0.03" fill="#ffffff"/></g><rect x=".5" y=".5" width="899" height="255" rx="5" fill="none" stroke="#a5cadb"/><g fill="none" stroke="#0b6f96" stroke-opacity=".5" stroke-width="1.2"><path d="M11 24V11H24"/><path d="M876 11H889V24"/><path d="M889 232V245H876"/><path d="M24 245H11V232"/></g>
<path d="M50 47V209" stroke="#a5cadb" stroke-width="1.4" fill="none"/>
<g class="row" style="animation-delay:0.06s"><text x="18" y="51.0" class="ix" fill="#5a7d93">01</text><rect x="45.5" y="42.5" width="9" height="9" fill="#0b6f96" transform="rotate(45 50 47)"/><g><rect x="72" y="34.0" width="146" height="26" rx="3" fill="#0b6f96" fill-opacity=".1" stroke="#0b6f96" stroke-opacity=".4"/><text x="145" y="50.5" class="period" text-anchor="middle" fill="#0b6f96">2026 — PRESENT</text></g><text x="244" y="51.5" class="role" fill="#0c2333">AI &amp; Automation Engineer</text><g><rect x="478" y="35.0" width="117" height="24" rx="3" fill="#a5cadb" fill-opacity=".2" stroke="#a5cadb"/><text x="536.5" y="50.5" class="org" text-anchor="middle" fill="#43657a">Remote Contract</text></g><text x="876" y="51.0" class="focus" text-anchor="end" fill="#5a7d93">n8n · Crawl · Agentic Workflow · Veo3</text></g><g class="row" style="animation-delay:0.14s"><path d="M20 74H880" stroke="#a5cadb" stroke-opacity=".35"/><text x="18" y="105.0" class="ix" fill="#5a7d93">02</text><rect x="45.5" y="96.5" width="9" height="9" fill="#9a5a00" transform="rotate(45 50 101)"/><g><rect x="72" y="88.0" width="146" height="26" rx="3" fill="#9a5a00" fill-opacity=".1" stroke="#9a5a00" stroke-opacity=".4"/><text x="145" y="104.5" class="period" text-anchor="middle" fill="#9a5a00">04/2025 — 03/2026</text></g><text x="244" y="105.5" class="role" fill="#0c2333">ERP Implementation Engineer</text><g><rect x="478" y="89.0" width="110" height="24" rx="3" fill="#a5cadb" fill-opacity=".2" stroke="#a5cadb"/><text x="533" y="104.5" class="org" text-anchor="middle" fill="#43657a">BRAVO Software</text></g><text x="876" y="105.0" class="focus" text-anchor="end" fill="#5a7d93">SQL Server · Stored Procedures · ERP</text></g><g class="row" style="animation-delay:0.22s"><path d="M20 128H880" stroke="#a5cadb" stroke-opacity=".35"/><text x="18" y="159.0" class="ix" fill="#5a7d93">03</text><rect x="45.5" y="150.5" width="9" height="9" fill="#6d43c8" transform="rotate(45 50 155)"/><g><rect x="72" y="142.0" width="146" height="26" rx="3" fill="#6d43c8" fill-opacity=".1" stroke="#6d43c8" stroke-opacity=".4"/><text x="145" y="158.5" class="period" text-anchor="middle" fill="#6d43c8">08/2024 — 03/2025</text></g><text x="244" y="159.5" class="role" fill="#0c2333">CRM Integration Engineer</text><g><rect x="478" y="143.0" width="117" height="24" rx="3" fill="#a5cadb" fill-opacity=".2" stroke="#a5cadb"/><text x="536.5" y="158.5" class="org" text-anchor="middle" fill="#43657a">AASC Audit Firm</text></g><text x="876" y="159.0" class="focus" text-anchor="end" fill="#5a7d93">NestJS · Webhooks · Cloud APIs</text></g><g class="row" style="animation-delay:0.30s"><path d="M20 182H880" stroke="#a5cadb" stroke-opacity=".35"/><text x="18" y="213.0" class="ix" fill="#5a7d93">04</text><rect x="45.5" y="204.5" width="9" height="9" fill="#0b6f96" transform="rotate(45 50 209)"/><g><rect x="72" y="196.0" width="146" height="26" rx="3" fill="#0b6f96" fill-opacity=".1" stroke="#0b6f96" stroke-opacity=".4"/><text x="145" y="212.5" class="period" text-anchor="middle" fill="#0b6f96">2021 — 2025</text></g><text x="244" y="213.5" class="role" fill="#0c2333">B.S. Information Technology</text><g><rect x="478" y="197.0" width="117" height="24" rx="3" fill="#a5cadb" fill-opacity=".2" stroke="#a5cadb"/><text x="536.5" y="212.5" class="org" text-anchor="middle" fill="#43657a">HaUI University</text></g><text x="876" y="213.0" class="focus" text-anchor="end" fill="#5a7d93">Software &amp; Data Foundations</text></g>
</svg>
