<svg xmlns="http://www.w3.org/2000/svg" viewBox="0 0 900 134" width="900" height="134" role="img" aria-label="26 stars, 1 forks and 12 public repositories">
<title>26 stars · 1 forks · 12 repos</title>
<defs><clipPath id="win0"><rect x="24" y="56" width="230" height="40"/></clipPath><clipPath id="win1"><rect x="324" y="56" width="230" height="40"/></clipPath><clipPath id="win2"><rect x="624" y="56" width="230" height="40"/></clipPath>
<linearGradient id="bgG" x1="0" y1="0" x2="1" y2="1"><stop offset="0" stop-color="#071c28"/><stop offset="1" stop-color="#0a2e40"/></linearGradient><linearGradient id="accentG" x1="0" y1="0" x2="1" y2="0"><stop offset="0" stop-color="#38bdf8"/><stop offset="1" stop-color="#fbbf24"/></linearGradient><pattern id="gm" width="12" height="12" patternUnits="userSpaceOnUse"><path d="M12 0H0V12" fill="none" stroke="#7dd3fc" stroke-opacity="0.085" stroke-width=".7"/></pattern><pattern id="gM" width="60" height="60" patternUnits="userSpaceOnUse"><rect width="60" height="60" fill="url(#gm)"/><path d="M60 0H0V60" fill="none" stroke="#7dd3fc" stroke-opacity="0.18" stroke-width="1"/></pattern><clipPath id="plate"><rect x="0" y="0" width="900" height="134" rx="5"/></clipPath><filter id="grain" x="-20%" y="-20%" width="140%" height="140%"><feTurbulence type="fractalNoise" baseFrequency="0.85" numOctaves="2" seed="7" stitchTiles="stitch" result="n"/><feColorMatrix in="n" type="matrix" values="0 0 0 0 1  0 0 0 0 1  0 0 0 0 1  0 0 0 0.7 0"/></filter>
</defs>
<style>
.n{font-family:-apple-system,BlinkMacSystemFont,'Segoe UI',Roboto,Helvetica,Arial,sans-serif;font-size:37px;font-weight:800;font-variant-numeric:tabular-nums}
.l{font-family:ui-monospace,SFMono-Regular,'SF Mono',Menlo,Consolas,monospace;font-size:10px;letter-spacing:1.7px}
.cell{animation:rise .5s cubic-bezier(.2,.7,.3,1) both}
.roll{animation:roll 1.5s steps(14) forwards}
.tick{animation:grow .5s cubic-bezier(.2,.7,.3,1) forwards;transform-box:fill-box;transform-origin:left}
@keyframes rise{from{transform:translateY(8px)}to{transform:translateY(0)}}
@keyframes roll{from{transform:translateY(-616px)}to{transform:translateY(0)}}
@keyframes grow{from{transform:scaleX(0)}to{transform:scaleX(1)}}
</style>
<rect x="0" y="0" width="900" height="134" rx="5" fill="url(#bgG)"/><g clip-path="url(#plate)"><rect x="0" y="0" width="900" height="134" fill="url(#gM)"/><rect x="0" y="0" width="900" height="134" filter="url(#grain)" opacity="0.045" fill="#ffffff"/></g><rect x=".5" y=".5" width="899" height="133" rx="5" fill="none" stroke="#1b5a7a"/><g fill="none" stroke="#38bdf8" stroke-opacity=".5" stroke-width="1.2"><path d="M11 24V11H24"/><path d="M876 11H889V24"/><path d="M889 110V123H876"/><path d="M24 123H11V110"/></g>
<g stroke="#1b5a7a"><path d="M300 30V104" stroke-opacity=".8"/></g><g stroke="#1b5a7a"><path d="M600 30V104" stroke-opacity=".8"/></g>
<g stroke="#1b5a7a" stroke-width="1" stroke-opacity=".75"><path d="M24 123V109"/><path d="M39 123V115"/><path d="M54 123V115"/><path d="M69 123V115"/><path d="M84 123V115"/><path d="M99 123V109"/><path d="M114 123V115"/><path d="M129 123V115"/><path d="M144 123V115"/><path d="M159 123V115"/><path d="M174 123V109"/><path d="M189 123V115"/><path d="M204 123V115"/><path d="M219 123V115"/><path d="M234 123V115"/><path d="M249 123V109"/><path d="M264 123V115"/><path d="M279 123V115"/><path d="M294 123V115"/><path d="M309 123V115"/><path d="M324 123V109"/><path d="M339 123V115"/><path d="M354 123V115"/><path d="M369 123V115"/><path d="M384 123V115"/><path d="M399 123V109"/><path d="M414 123V115"/><path d="M429 123V115"/><path d="M444 123V115"/><path d="M459 123V115"/><path d="M474 123V109"/><path d="M489 123V115"/><path d="M504 123V115"/><path d="M519 123V115"/><path d="M534 123V115"/><path d="M549 123V109"/><path d="M564 123V115"/><path d="M579 123V115"/><path d="M594 123V115"/><path d="M609 123V115"/><path d="M624 123V109"/><path d="M639 123V115"/><path d="M654 123V115"/><path d="M669 123V115"/><path d="M684 123V115"/><path d="M699 123V109"/><path d="M714 123V115"/><path d="M729 123V115"/><path d="M744 123V115"/><path d="M759 123V115"/><path d="M774 123V109"/><path d="M789 123V115"/><path d="M804 123V115"/><path d="M819 123V115"/><path d="M834 123V115"/><path d="M849 123V109"/><path d="M864 123V115"/></g>
<g class="cell" style="animation-delay:0.06s"><text x="24" y="46" class="l" fill="#93b6ca">TOTAL STARS</text><g clip-path="url(#win0)"><g class="roll" style="animation-delay:0.35s"><text x="24" y="88" class="n" fill="#fbbf24">26</text><text x="24" y="132" class="n" fill="#fbbf24">26</text><text x="24" y="176" class="n" fill="#fbbf24">26</text><text x="24" y="220" class="n" fill="#fbbf24">25</text><text x="24" y="264" class="n" fill="#fbbf24">25</text><text x="24" y="308" class="n" fill="#fbbf24">24</text><text x="24" y="352" class="n" fill="#fbbf24">23</text><text x="24" y="396" class="n" fill="#fbbf24">21</text><text x="24" y="440" class="n" fill="#fbbf24">19</text><text x="24" y="484" class="n" fill="#fbbf24">17</text><text x="24" y="528" class="n" fill="#fbbf24">14</text><text x="24" y="572" class="n" fill="#fbbf24">11</text><text x="24" y="616" class="n" fill="#fbbf24">8</text><text x="24" y="660" class="n" fill="#fbbf24">4</text><text x="24" y="704" class="n" fill="#fbbf24">0</text></g></g><rect class="tick" x="24" y="100" width="36" height="2.5" fill="#fbbf24" style="animation-delay:0.90s"/></g><g class="cell" style="animation-delay:0.16s"><text x="324" y="46" class="l" fill="#93b6ca">FORKS</text><g clip-path="url(#win1)"><g class="roll" style="animation-delay:0.45s"><text x="324" y="88" class="n" fill="#38bdf8">1</text><text x="324" y="132" class="n" fill="#38bdf8">1</text><text x="324" y="176" class="n" fill="#38bdf8">1</text><text x="324" y="220" class="n" fill="#38bdf8">1</text><text x="324" y="264" class="n" fill="#38bdf8">1</text><text x="324" y="308" class="n" fill="#38bdf8">1</text><text x="324" y="352" class="n" fill="#38bdf8">1</text><text x="324" y="396" class="n" fill="#38bdf8">1</text><text x="324" y="440" class="n" fill="#38bdf8">1</text><text x="324" y="484" class="n" fill="#38bdf8">1</text><text x="324" y="528" class="n" fill="#38bdf8">1</text><text x="324" y="572" class="n" fill="#38bdf8">0</text><text x="324" y="616" class="n" fill="#38bdf8">0</text><text x="324" y="660" class="n" fill="#38bdf8">0</text><text x="324" y="704" class="n" fill="#38bdf8">0</text></g></g><rect class="tick" x="324" y="100" width="36" height="2.5" fill="#38bdf8" style="animation-delay:1.00s"/></g><g class="cell" style="animation-delay:0.26s"><text x="624" y="46" class="l" fill="#93b6ca">PUBLIC REPOS</text><g clip-path="url(#win2)"><g class="roll" style="animation-delay:0.55s"><text x="624" y="88" class="n" fill="#a78bfa">12</text><text x="624" y="132" class="n" fill="#a78bfa">12</text><text x="624" y="176" class="n" fill="#a78bfa">12</text><text x="624" y="220" class="n" fill="#a78bfa">12</text><text x="624" y="264" class="n" fill="#a78bfa">11</text><text x="624" y="308" class="n" fill="#a78bfa">11</text><text x="624" y="352" class="n" fill="#a78bfa">10</text><text x="624" y="396" class="n" fill="#a78bfa">10</text><text x="624" y="440" class="n" fill="#a78bfa">9</text><text x="624" y="484" class="n" fill="#a78bfa">8</text><text x="624" y="528" class="n" fill="#a78bfa">7</text><text x="624" y="572" class="n" fill="#a78bfa">5</text><text x="624" y="616" class="n" fill="#a78bfa">4</text><text x="624" y="660" class="n" fill="#a78bfa">2</text><text x="624" y="704" class="n" fill="#a78bfa">0</text></g></g><rect class="tick" x="624" y="100" width="36" height="2.5" fill="#a78bfa" style="animation-delay:1.10s"/></g>
</svg>
