<svg xmlns="http://www.w3.org/2000/svg" viewBox="0 0 900 218" width="900" height="218" role="img" aria-label="Stack: AI &amp; Agents - n8n, Mastra AI, MCP Protocol, Tool Calling, curl_cffi, Playwright; Backend &amp; Data - Python (FastAPI), NestJS / TypeScript, PostgreSQL, SQL Server; Infra &amp; Systems - Linux / Ubuntu, Docker, systemd &amp; cron, Reverse API">
<title>Stack</title>
<defs><linearGradient id="bgG" x1="0" y1="0" x2="1" y2="1"><stop offset="0" stop-color="#f2f8fc"/><stop offset="1" stop-color="#d8ebf5"/></linearGradient><linearGradient id="accentG" x1="0" y1="0" x2="1" y2="0"><stop offset="0" stop-color="#0b6f96"/><stop offset="1" stop-color="#9a5a00"/></linearGradient><pattern id="gm" width="12" height="12" patternUnits="userSpaceOnUse"><path d="M12 0H0V12" fill="none" stroke="#186488" stroke-opacity="0.1" stroke-width=".7"/></pattern><pattern id="gM" width="60" height="60" patternUnits="userSpaceOnUse"><rect width="60" height="60" fill="url(#gm)"/><path d="M60 0H0V60" fill="none" stroke="#186488" stroke-opacity="0.2" stroke-width="1"/></pattern><clipPath id="plate"><rect x="0" y="0" width="900" height="218" rx="5"/></clipPath><filter id="grain" x="-20%" y="-20%" width="140%" height="140%"><feTurbulence type="fractalNoise" baseFrequency="0.85" numOctaves="2" seed="7" stitchTiles="stitch" result="n"/><feColorMatrix in="n" type="matrix" values="0 0 0 0 1  0 0 0 0 1  0 0 0 0 1  0 0 0 0.7 0"/></filter></defs>
<style>
.ix{font-family:ui-monospace,SFMono-Regular,'SF Mono',Menlo,Consolas,monospace;font-size:11px;letter-spacing:1px}
.lb{font-family:ui-monospace,SFMono-Regular,'SF Mono',Menlo,Consolas,monospace;font-size:13.5px;font-weight:700;letter-spacing:.9px}
.ch{font-family:ui-monospace,SFMono-Regular,'SF Mono',Menlo,Consolas,monospace;font-size:12.5px}
.row{animation:up .5s cubic-bezier(.2,.7,.3,1) both}
@keyframes up{from{transform:translateX(-10px)}to{transform:translateX(0)}}
</style>
<rect x="0" y="0" width="900" height="218" rx="5" fill="url(#bgG)"/><g clip-path="url(#plate)"><rect x="0" y="0" width="900" height="218" fill="url(#gM)"/><rect x="0" y="0" width="900" height="218" filter="url(#grain)" opacity="0.03" fill="#ffffff"/></g><rect x=".5" y=".5" width="899" height="217" rx="5" fill="none" stroke="#a5cadb"/><g fill="none" stroke="#0b6f96" stroke-opacity=".5" stroke-width="1.2"><path d="M11 24V11H24"/><path d="M876 11H889V24"/><path d="M889 194V207H876"/><path d="M24 207H11V194"/></g>
<path d="M62 51V167" stroke="#a5cadb" stroke-width="1.2" fill="none"/>
<g class="row" style="animation-delay:0.05s"><text x="24" y="55.0" class="ix" fill="#5a7d93">L1</text><rect x="57.5" y="46.5" width="9" height="9" fill="#0b6f96" transform="rotate(45 62 51)"/><text x="82" y="55.5" class="lb" fill="#0b6f96">AI &amp; AGENTS</text><g><rect x="245" y="37.0" width="45" height="28" rx="3" fill="#0b6f96" fill-opacity=".1" stroke="#0b6f96" stroke-opacity=".45"/><text x="256" y="55.0" class="ch" fill="#0c2333">n8n</text></g><g><rect x="298" y="37.0" width="90" height="28" rx="3" fill="#0b6f96" fill-opacity=".1" stroke="#0b6f96" stroke-opacity=".45"/><text x="309" y="55.0" class="ch" fill="#0c2333">Mastra AI</text></g><g><rect x="396" y="37.0" width="112" height="28" rx="3" fill="#0b6f96" fill-opacity=".1" stroke="#0b6f96" stroke-opacity=".45"/><text x="407" y="55.0" class="ch" fill="#0c2333">MCP Protocol</text></g><g><rect x="516" y="37.0" width="112" height="28" rx="3" fill="#0b6f96" fill-opacity=".1" stroke="#0b6f96" stroke-opacity=".45"/><text x="527" y="55.0" class="ch" fill="#0c2333">Tool Calling</text></g><g><rect x="636" y="37.0" width="90" height="28" rx="3" fill="#0b6f96" fill-opacity=".1" stroke="#0b6f96" stroke-opacity=".45"/><text x="647" y="55.0" class="ch" fill="#0c2333">curl_cffi</text></g><g><rect x="734" y="37.0" width="97" height="28" rx="3" fill="#0b6f96" fill-opacity=".1" stroke="#0b6f96" stroke-opacity=".45"/><text x="745" y="55.0" class="ch" fill="#0c2333">Playwright</text></g></g><g class="row" style="animation-delay:0.12s"><path d="M20 80H880" stroke="#a5cadb" stroke-opacity=".35"/><text x="24" y="113.0" class="ix" fill="#5a7d93">L2</text><rect x="57.5" y="104.5" width="9" height="9" fill="#9a5a00" transform="rotate(45 62 109)"/><text x="82" y="113.5" class="lb" fill="#9a5a00">BACKEND &amp; DATA</text><g><rect x="245" y="95.0" width="142" height="28" rx="3" fill="#9a5a00" fill-opacity=".1" stroke="#9a5a00" stroke-opacity=".45"/><text x="256" y="113.0" class="ch" fill="#0c2333">Python (FastAPI)</text></g><g><rect x="395" y="95.0" width="165" height="28" rx="3" fill="#9a5a00" fill-opacity=".1" stroke="#9a5a00" stroke-opacity=".45"/><text x="406" y="113.0" class="ch" fill="#0c2333">NestJS / TypeScript</text></g><g><rect x="568" y="95.0" width="97" height="28" rx="3" fill="#9a5a00" fill-opacity=".1" stroke="#9a5a00" stroke-opacity=".45"/><text x="579" y="113.0" class="ch" fill="#0c2333">PostgreSQL</text></g><g><rect x="673" y="95.0" width="97" height="28" rx="3" fill="#9a5a00" fill-opacity=".1" stroke="#9a5a00" stroke-opacity=".45"/><text x="684" y="113.0" class="ch" fill="#0c2333">SQL Server</text></g></g><g class="row" style="animation-delay:0.19s"><path d="M20 138H880" stroke="#a5cadb" stroke-opacity=".35"/><text x="24" y="171.0" class="ix" fill="#5a7d93">L3</text><rect x="57.5" y="162.5" width="9" height="9" fill="#6d43c8" transform="rotate(45 62 167)"/><text x="82" y="171.5" class="lb" fill="#6d43c8">INFRA &amp; SYSTEMS</text><g><rect x="245" y="153.0" width="127" height="28" rx="3" fill="#6d43c8" fill-opacity=".1" stroke="#6d43c8" stroke-opacity=".45"/><text x="256" y="171.0" class="ch" fill="#0c2333">Linux / Ubuntu</text></g><g><rect x="380" y="153.0" width="67" height="28" rx="3" fill="#6d43c8" fill-opacity=".1" stroke="#6d43c8" stroke-opacity=".45"/><text x="391" y="171.0" class="ch" fill="#0c2333">Docker</text></g><g><rect x="455" y="153.0" width="127" height="28" rx="3" fill="#6d43c8" fill-opacity=".1" stroke="#6d43c8" stroke-opacity=".45"/><text x="466" y="171.0" class="ch" fill="#0c2333">systemd &amp; cron</text></g><g><rect x="590" y="153.0" width="105" height="28" rx="3" fill="#6d43c8" fill-opacity=".1" stroke="#6d43c8" stroke-opacity=".45"/><text x="601" y="171.0" class="ch" fill="#0c2333">Reverse API</text></g></g>
</svg>
